<svg width="32" height="32" viewBox="0 0 32 32" xmlns="http://www.w3.org/2000/svg">
  <defs>
    <linearGradient id="faviconOcean" x1="0%" y1="0%" x2="100%" y2="100%">
      <stop offset="0%" style="stop-color:#00CED1;stop-opacity:1" />
      <stop offset="100%" style="stop-color:#008B8B;stop-opacity:1" />
    </linearGradient>
    <linearGradient id="faviconSwoosh" x1="0%" y1="0%" x2="100%" y2="0%">
      <stop offset="0%" style="stop-color:#00A86B;stop-opacity:1" />
      <stop offset="100%" style="stop-color:#00D4AA;stop-opacity:1" />
    </linearGradient>
  </defs>
  
  <!-- Simplified globe -->
  <circle cx="16" cy="16" r="10" fill="url(#faviconOcean)"/>
  <path d="M 12 14 Q 14 12, 16 14 Q 18 16, 16 18 Q 14 20, 12 18 Z" fill="#00A86B" opacity="0.9"/>
  <path d="M 16 10 Q 18 9, 20 11 Q 21 13, 19 14 Q 17 13, 16 12 Z" fill="#00A86B" opacity="0.85"/>
  
  <!-- Simplified swoosh -->
  <path d="M 8 20 Q 6 16, 8 12 Q 12 8, 18 10 Q 22 12, 22 16" 
        stroke="url(#faviconSwoosh)" 
        stroke-width="2.5" 
        fill="none" 
        stroke-linecap="round"/>
  
  <!-- Simplified sun -->
  <circle cx="24" cy="8" r="3.5" fill="#FF6B35"/>
  <line x1="24" y1="2" x2="24" y2="4.5" stroke="#FF6B35" stroke-width="1.5" stroke-linecap="round"/>
  <line x1="24" y1="11.5" x2="24" y2="14" stroke="#FF6B35" stroke-width="1.5" stroke-linecap="round"/>
  <line x1="18" y1="8" x2="20.5" y2="8" stroke="#FF6B35" stroke-width="1.5" stroke-linecap="round"/>
  <line x1="27.5" y1="8" x2="30" y2="8" stroke="#FF6B35" stroke-width="1.5" stroke-linecap="round"/>
</svg>
